<mxfile host="app.diagrams.net" modified="2024-06-03T17:10:34.915Z" agent="Mozilla/5.0 (Macintosh; Intel Mac OS X 10_15_7) AppleWebKit/537.36 (KHTML, like Gecko) Chrome/125.0.0.0 Safari/537.36" version="24.4.13" etag="qDsGVuXI9oZZIW8sKEQJ" type="github">
  <diagram name="Seite-1" id="JGPDwa7cZxUOvn34eecw">
    <mxGraphModel>
      <root>
        <mxCell id="0" />
        <mxCell id="1" parent="0" />
      </root>
    </mxGraphModel>
  </diagram>
</mxfile>
